G04 EAGLE Gerber RS-274X export*
G75*
%MOMM*%
%FSLAX34Y34*%
%LPD*%
%INBottom Copper*%
%IPPOS*%
%AMOC8*
5,1,8,0,0,1.08239X$1,22.5*%
G01*
G04 Define Apertures*
%ADD10C,1.524000*%
%ADD11C,0.152400*%
D10*
X134620Y-728250D02*
X119380Y-728250D01*
X119380Y-702850D02*
X134620Y-702850D01*
X134620Y-677450D02*
X119380Y-677450D01*
X119380Y-652050D02*
X134620Y-652050D01*
X134620Y-626650D02*
X119380Y-626650D01*
X119380Y-601250D02*
X134620Y-601250D01*
X134620Y-575850D02*
X119380Y-575850D01*
X119380Y-550450D02*
X134620Y-550450D01*
X134620Y-525050D02*
X119380Y-525050D01*
X119380Y-499650D02*
X134620Y-499650D01*
X134620Y-474250D02*
X119380Y-474250D01*
X119380Y-448850D02*
X134620Y-448850D01*
X134620Y-423450D02*
X119380Y-423450D01*
X119380Y-398050D02*
X134620Y-398050D01*
X134620Y-372650D02*
X119380Y-372650D01*
X373380Y-728250D02*
X388620Y-728250D01*
X388620Y-702850D02*
X373380Y-702850D01*
X373380Y-677450D02*
X388620Y-677450D01*
X388620Y-652050D02*
X373380Y-652050D01*
X373380Y-626650D02*
X388620Y-626650D01*
X388620Y-601250D02*
X373380Y-601250D01*
X373380Y-575850D02*
X388620Y-575850D01*
X388620Y-550450D02*
X373380Y-550450D01*
X373380Y-525050D02*
X388620Y-525050D01*
X388620Y-499650D02*
X373380Y-499650D01*
X373380Y-474250D02*
X388620Y-474250D01*
X388620Y-448850D02*
X373380Y-448850D01*
X373380Y-423450D02*
X388620Y-423450D01*
X388620Y-398050D02*
X373380Y-398050D01*
X373380Y-372650D02*
X388620Y-372650D01*
X134620Y-215900D02*
X119380Y-215900D01*
X119380Y-190500D02*
X134620Y-190500D01*
X134620Y-165100D02*
X119380Y-165100D01*
X119380Y-139700D02*
X134620Y-139700D01*
X134620Y-114300D02*
X119380Y-114300D01*
X119380Y-88900D02*
X134620Y-88900D01*
X134620Y-63500D02*
X119380Y-63500D01*
X119380Y-38100D02*
X134620Y-38100D01*
X373380Y-215900D02*
X388620Y-215900D01*
X388620Y-190500D02*
X373380Y-190500D01*
X373380Y-165100D02*
X388620Y-165100D01*
X388620Y-139700D02*
X373380Y-139700D01*
X373380Y-114300D02*
X388620Y-114300D01*
X388620Y-88900D02*
X373380Y-88900D01*
X373380Y-63500D02*
X388620Y-63500D01*
X388620Y-38100D02*
X373380Y-38100D01*
D11*
X128016Y-161544D02*
X128016Y-164592D01*
X128016Y-161544D02*
X144780Y-144780D01*
X144780Y-89916D02*
X144780Y-54864D01*
X144780Y-89916D02*
X144780Y-144780D01*
X144780Y-54864D02*
X128016Y-38100D01*
X128016Y-164592D02*
X127000Y-165100D01*
X127000Y-38100D02*
X128016Y-38100D01*
X144780Y-89916D02*
X381000Y-89916D01*
X381000Y-88900D01*
X128016Y-699516D02*
X128016Y-702564D01*
X128016Y-699516D02*
X362712Y-464820D01*
X362712Y-208788D01*
X381000Y-190500D01*
X128016Y-702564D02*
X127000Y-702850D01*
X128016Y-676656D02*
X128016Y-673608D01*
X359664Y-441960D01*
X359664Y-187452D01*
X381000Y-166116D01*
X128016Y-676656D02*
X127000Y-677450D01*
X381000Y-166116D02*
X381000Y-165100D01*
X128016Y-647700D02*
X128016Y-650748D01*
X128016Y-647700D02*
X251460Y-524256D01*
X251460Y-195072D01*
X306324Y-140208D01*
X381000Y-140208D01*
X128016Y-650748D02*
X127000Y-652050D01*
X381000Y-140208D02*
X381000Y-139700D01*
M02*
