G04 EAGLE Gerber RS-274X export*
G75*
%MOMM*%
%FSLAX34Y34*%
%LPD*%
%INSilkscreen Top*%
%IPPOS*%
%AMOC8*
5,1,8,0,0,1.08239X$1,22.5*%
G01*
G04 Define Apertures*
%ADD10C,0.152400*%
G36*
X108712Y-716899D02*
X103904Y-716899D01*
X103904Y-713273D01*
X103887Y-712795D01*
X103839Y-712343D01*
X103758Y-711917D01*
X103645Y-711516D01*
X103500Y-711140D01*
X103322Y-710791D01*
X103112Y-710467D01*
X102870Y-710168D01*
X102600Y-709900D01*
X102308Y-709668D01*
X101994Y-709472D01*
X101657Y-709311D01*
X101298Y-709186D01*
X100916Y-709096D01*
X100512Y-709043D01*
X100085Y-709025D01*
X99655Y-709043D01*
X99250Y-709096D01*
X98870Y-709185D01*
X98515Y-709310D01*
X98185Y-709470D01*
X97879Y-709666D01*
X97599Y-709897D01*
X97343Y-710164D01*
X97116Y-710463D01*
X96918Y-710792D01*
X96751Y-711149D01*
X96614Y-711537D01*
X96508Y-711953D01*
X96432Y-712399D01*
X96386Y-712874D01*
X96371Y-713378D01*
X96371Y-718572D01*
X108712Y-718572D01*
X108712Y-716899D01*
G37*
%LPC*%
G36*
X97711Y-716899D02*
X97711Y-713579D01*
X97721Y-713232D01*
X97749Y-712906D01*
X97795Y-712603D01*
X97861Y-712323D01*
X97945Y-712065D01*
X98048Y-711829D01*
X98169Y-711616D01*
X98309Y-711425D01*
X98468Y-711257D01*
X98645Y-711111D01*
X98841Y-710987D01*
X99056Y-710886D01*
X99290Y-710808D01*
X99542Y-710752D01*
X99813Y-710718D01*
X100102Y-710707D01*
X100403Y-710718D01*
X100683Y-710750D01*
X100945Y-710805D01*
X101187Y-710882D01*
X101409Y-710980D01*
X101613Y-711101D01*
X101797Y-711243D01*
X101961Y-711407D01*
X102107Y-711593D01*
X102232Y-711801D01*
X102339Y-712031D01*
X102426Y-712283D01*
X102494Y-712557D01*
X102542Y-712853D01*
X102571Y-713170D01*
X102581Y-713509D01*
X102581Y-716899D01*
X97711Y-716899D01*
G37*
%LPD*%
G36*
X108712Y-698974D02*
X107372Y-698974D01*
X107372Y-701979D01*
X96371Y-701979D01*
X96371Y-703433D01*
X98377Y-706349D01*
X99866Y-706349D01*
X97878Y-703564D01*
X107372Y-703564D01*
X107372Y-706708D01*
X108712Y-706708D01*
X108712Y-698974D01*
G37*
G36*
X106039Y-728648D02*
X106406Y-728545D01*
X106748Y-728422D01*
X107064Y-728279D01*
X107355Y-728116D01*
X107621Y-727933D01*
X107862Y-727730D01*
X108077Y-727508D01*
X108267Y-727265D01*
X108431Y-727003D01*
X108571Y-726720D01*
X108685Y-726418D01*
X108773Y-726096D01*
X108837Y-725753D01*
X108875Y-725391D01*
X108887Y-725009D01*
X108871Y-724598D01*
X108823Y-724209D01*
X108742Y-723843D01*
X108630Y-723499D01*
X108485Y-723177D01*
X108308Y-722878D01*
X108099Y-722601D01*
X107858Y-722347D01*
X107589Y-722119D01*
X107296Y-721921D01*
X106978Y-721754D01*
X106637Y-721618D01*
X106272Y-721511D01*
X105883Y-721435D01*
X105470Y-721390D01*
X105033Y-721375D01*
X96371Y-721375D01*
X96371Y-725412D01*
X97738Y-725412D01*
X97738Y-723039D01*
X105068Y-723039D01*
X105362Y-723047D01*
X105636Y-723072D01*
X105893Y-723113D01*
X106132Y-723170D01*
X106352Y-723244D01*
X106554Y-723334D01*
X106738Y-723441D01*
X106903Y-723564D01*
X107050Y-723702D01*
X107177Y-723851D01*
X107285Y-724013D01*
X107373Y-724186D01*
X107442Y-724372D01*
X107490Y-724569D01*
X107520Y-724779D01*
X107530Y-725001D01*
X107521Y-725204D01*
X107494Y-725399D01*
X107450Y-725585D01*
X107387Y-725763D01*
X107307Y-725931D01*
X107209Y-726091D01*
X107094Y-726242D01*
X106960Y-726384D01*
X106811Y-726516D01*
X106648Y-726636D01*
X106471Y-726743D01*
X106279Y-726838D01*
X106074Y-726920D01*
X105855Y-726990D01*
X105622Y-727048D01*
X105375Y-727094D01*
X105647Y-728732D01*
X106039Y-728648D01*
G37*
G36*
X362712Y-729599D02*
X357904Y-729599D01*
X357904Y-725973D01*
X357887Y-725495D01*
X357839Y-725043D01*
X357758Y-724617D01*
X357645Y-724216D01*
X357500Y-723840D01*
X357322Y-723491D01*
X357112Y-723167D01*
X356870Y-722868D01*
X356600Y-722600D01*
X356308Y-722368D01*
X355994Y-722172D01*
X355657Y-722011D01*
X355298Y-721886D01*
X354916Y-721796D01*
X354512Y-721743D01*
X354085Y-721725D01*
X353655Y-721743D01*
X353250Y-721796D01*
X352870Y-721885D01*
X352515Y-722010D01*
X352185Y-722170D01*
X351879Y-722366D01*
X351599Y-722597D01*
X351343Y-722864D01*
X351116Y-723163D01*
X350918Y-723492D01*
X350751Y-723849D01*
X350614Y-724237D01*
X350508Y-724653D01*
X350432Y-725099D01*
X350386Y-725574D01*
X350371Y-726078D01*
X350371Y-731272D01*
X362712Y-731272D01*
X362712Y-729599D01*
G37*
%LPC*%
G36*
X351711Y-729599D02*
X351711Y-726279D01*
X351721Y-725932D01*
X351749Y-725606D01*
X351795Y-725303D01*
X351861Y-725023D01*
X351945Y-724765D01*
X352048Y-724529D01*
X352169Y-724316D01*
X352309Y-724125D01*
X352468Y-723957D01*
X352645Y-723811D01*
X352841Y-723687D01*
X353056Y-723586D01*
X353290Y-723508D01*
X353542Y-723452D01*
X353813Y-723418D01*
X354102Y-723407D01*
X354403Y-723418D01*
X354683Y-723450D01*
X354945Y-723505D01*
X355187Y-723582D01*
X355409Y-723680D01*
X355613Y-723801D01*
X355797Y-723943D01*
X355961Y-724107D01*
X356107Y-724293D01*
X356232Y-724501D01*
X356339Y-724731D01*
X356426Y-724983D01*
X356494Y-725257D01*
X356542Y-725553D01*
X356571Y-725870D01*
X356581Y-726209D01*
X356581Y-729599D01*
X351711Y-729599D01*
G37*
%LPD*%
G36*
X362712Y-711701D02*
X361372Y-711701D01*
X361372Y-718138D01*
X361062Y-717986D01*
X360747Y-717792D01*
X360425Y-717557D01*
X360098Y-717280D01*
X359757Y-716956D01*
X359396Y-716581D01*
X359015Y-716155D01*
X358613Y-715677D01*
X357917Y-714836D01*
X357319Y-714142D01*
X356818Y-713596D01*
X356415Y-713198D01*
X356060Y-712894D01*
X355705Y-712630D01*
X355350Y-712406D01*
X354996Y-712222D01*
X354640Y-712078D01*
X354284Y-711975D01*
X353927Y-711914D01*
X353568Y-711893D01*
X353175Y-711909D01*
X352804Y-711956D01*
X352457Y-712034D01*
X352133Y-712144D01*
X351832Y-712285D01*
X351554Y-712457D01*
X351299Y-712661D01*
X351068Y-712896D01*
X350861Y-713160D01*
X350682Y-713452D01*
X350531Y-713770D01*
X350407Y-714115D01*
X350311Y-714487D01*
X350242Y-714886D01*
X350201Y-715312D01*
X350187Y-715765D01*
X350201Y-716180D01*
X350242Y-716576D01*
X350310Y-716952D01*
X350406Y-717309D01*
X350529Y-717647D01*
X350680Y-717966D01*
X350858Y-718265D01*
X351063Y-718545D01*
X351292Y-718802D01*
X351539Y-719030D01*
X351805Y-719229D01*
X352090Y-719401D01*
X352394Y-719543D01*
X352717Y-719658D01*
X353059Y-719744D01*
X353419Y-719802D01*
X353568Y-718191D01*
X353328Y-718154D01*
X353101Y-718100D01*
X352888Y-718030D01*
X352689Y-717942D01*
X352504Y-717838D01*
X352332Y-717717D01*
X352175Y-717579D01*
X352031Y-717424D01*
X351903Y-717256D01*
X351791Y-717076D01*
X351697Y-716885D01*
X351620Y-716683D01*
X351561Y-716470D01*
X351518Y-716246D01*
X351492Y-716011D01*
X351484Y-715765D01*
X351492Y-715507D01*
X351519Y-715264D01*
X351562Y-715035D01*
X351624Y-714821D01*
X351703Y-714621D01*
X351799Y-714436D01*
X351913Y-714265D01*
X352044Y-714109D01*
X352191Y-713970D01*
X352353Y-713849D01*
X352529Y-713746D01*
X352719Y-713663D01*
X352923Y-713597D01*
X353141Y-713551D01*
X353374Y-713523D01*
X353621Y-713514D01*
X353987Y-713535D01*
X354334Y-713600D01*
X354662Y-713708D01*
X354969Y-713860D01*
X355264Y-714046D01*
X355552Y-714259D01*
X355833Y-714499D01*
X356108Y-714766D01*
X356651Y-715361D01*
X357194Y-716023D01*
X357760Y-716723D01*
X358372Y-717429D01*
X358699Y-717779D01*
X359044Y-718122D01*
X359408Y-718456D01*
X359791Y-718782D01*
X360198Y-719092D01*
X360635Y-719376D01*
X361102Y-719637D01*
X361600Y-719872D01*
X362712Y-719872D01*
X362712Y-711701D01*
G37*
G36*
X360039Y-741348D02*
X360406Y-741245D01*
X360748Y-741122D01*
X361064Y-740979D01*
X361355Y-740816D01*
X361621Y-740633D01*
X361862Y-740430D01*
X362077Y-740208D01*
X362267Y-739965D01*
X362431Y-739703D01*
X362571Y-739420D01*
X362685Y-739118D01*
X362773Y-738796D01*
X362837Y-738453D01*
X362875Y-738091D01*
X362887Y-737709D01*
X362871Y-737298D01*
X362823Y-736909D01*
X362742Y-736543D01*
X362630Y-736199D01*
X362485Y-735877D01*
X362308Y-735578D01*
X362099Y-735301D01*
X361858Y-735047D01*
X361589Y-734819D01*
X361296Y-734621D01*
X360978Y-734454D01*
X360637Y-734318D01*
X360272Y-734211D01*
X359883Y-734135D01*
X359470Y-734090D01*
X359033Y-734075D01*
X350371Y-734075D01*
X350371Y-738112D01*
X351738Y-738112D01*
X351738Y-735739D01*
X359068Y-735739D01*
X359362Y-735747D01*
X359636Y-735772D01*
X359893Y-735813D01*
X360132Y-735870D01*
X360352Y-735944D01*
X360554Y-736034D01*
X360738Y-736141D01*
X360903Y-736264D01*
X361050Y-736402D01*
X361177Y-736551D01*
X361285Y-736713D01*
X361373Y-736886D01*
X361442Y-737072D01*
X361490Y-737269D01*
X361520Y-737479D01*
X361530Y-737701D01*
X361521Y-737904D01*
X361494Y-738099D01*
X361450Y-738285D01*
X361387Y-738463D01*
X361307Y-738631D01*
X361209Y-738791D01*
X361094Y-738942D01*
X360960Y-739084D01*
X360811Y-739216D01*
X360648Y-739336D01*
X360471Y-739443D01*
X360279Y-739538D01*
X360074Y-739620D01*
X359855Y-739690D01*
X359622Y-739748D01*
X359375Y-739794D01*
X359647Y-741432D01*
X360039Y-741348D01*
G37*
G36*
X108712Y-217249D02*
X103904Y-217249D01*
X103904Y-213623D01*
X103887Y-213145D01*
X103839Y-212693D01*
X103758Y-212267D01*
X103645Y-211866D01*
X103500Y-211490D01*
X103322Y-211141D01*
X103112Y-210817D01*
X102870Y-210518D01*
X102600Y-210250D01*
X102308Y-210018D01*
X101994Y-209822D01*
X101657Y-209661D01*
X101298Y-209536D01*
X100916Y-209446D01*
X100512Y-209393D01*
X100085Y-209375D01*
X99655Y-209393D01*
X99250Y-209446D01*
X98870Y-209535D01*
X98515Y-209660D01*
X98185Y-209820D01*
X97879Y-210016D01*
X97599Y-210247D01*
X97343Y-210514D01*
X97116Y-210813D01*
X96918Y-211142D01*
X96751Y-211499D01*
X96614Y-211887D01*
X96508Y-212303D01*
X96432Y-212749D01*
X96386Y-213224D01*
X96371Y-213728D01*
X96371Y-218922D01*
X108712Y-218922D01*
X108712Y-217249D01*
G37*
%LPC*%
G36*
X97711Y-217249D02*
X97711Y-213929D01*
X97721Y-213582D01*
X97749Y-213256D01*
X97795Y-212953D01*
X97861Y-212673D01*
X97945Y-212415D01*
X98048Y-212179D01*
X98169Y-211966D01*
X98309Y-211775D01*
X98468Y-211607D01*
X98645Y-211461D01*
X98841Y-211337D01*
X99056Y-211236D01*
X99290Y-211158D01*
X99542Y-211102D01*
X99813Y-211068D01*
X100102Y-211057D01*
X100403Y-211068D01*
X100683Y-211100D01*
X100945Y-211155D01*
X101187Y-211232D01*
X101409Y-211330D01*
X101613Y-211451D01*
X101797Y-211593D01*
X101961Y-211757D01*
X102107Y-211943D01*
X102232Y-212151D01*
X102339Y-212381D01*
X102426Y-212633D01*
X102494Y-212907D01*
X102542Y-213203D01*
X102571Y-213520D01*
X102581Y-213859D01*
X102581Y-217249D01*
X97711Y-217249D01*
G37*
%LPD*%
G36*
X105943Y-207675D02*
X106318Y-207580D01*
X106669Y-207456D01*
X106994Y-207305D01*
X107294Y-207125D01*
X107569Y-206916D01*
X107818Y-206679D01*
X108042Y-206414D01*
X108240Y-206123D01*
X108412Y-205809D01*
X108557Y-205470D01*
X108676Y-205108D01*
X108768Y-204723D01*
X108834Y-204313D01*
X108874Y-203880D01*
X108887Y-203423D01*
X108873Y-202934D01*
X108829Y-202474D01*
X108755Y-202043D01*
X108653Y-201641D01*
X108521Y-201268D01*
X108360Y-200924D01*
X108170Y-200609D01*
X107950Y-200323D01*
X107704Y-200068D01*
X107433Y-199848D01*
X107139Y-199661D01*
X106820Y-199508D01*
X106478Y-199390D01*
X106111Y-199305D01*
X105720Y-199254D01*
X105305Y-199237D01*
X105016Y-199249D01*
X104739Y-199285D01*
X104475Y-199345D01*
X104223Y-199430D01*
X103984Y-199538D01*
X103758Y-199670D01*
X103544Y-199827D01*
X103343Y-200008D01*
X103158Y-200210D01*
X102993Y-200431D01*
X102847Y-200672D01*
X102721Y-200932D01*
X102615Y-201211D01*
X102528Y-201509D01*
X102462Y-201826D01*
X102415Y-202162D01*
X102380Y-202162D01*
X102306Y-201856D01*
X102218Y-201569D01*
X102115Y-201301D01*
X101998Y-201051D01*
X101865Y-200820D01*
X101717Y-200608D01*
X101554Y-200414D01*
X101377Y-200240D01*
X101185Y-200085D01*
X100979Y-199950D01*
X100759Y-199837D01*
X100526Y-199744D01*
X100279Y-199671D01*
X100018Y-199620D01*
X99743Y-199589D01*
X99454Y-199578D01*
X99079Y-199594D01*
X98726Y-199643D01*
X98394Y-199723D01*
X98082Y-199836D01*
X97793Y-199980D01*
X97524Y-200157D01*
X97276Y-200366D01*
X97050Y-200608D01*
X96848Y-200878D01*
X96673Y-201174D01*
X96524Y-201496D01*
X96403Y-201844D01*
X96309Y-202217D01*
X96241Y-202617D01*
X96201Y-203042D01*
X96187Y-203493D01*
X96201Y-203909D01*
X96240Y-204304D01*
X96307Y-204681D01*
X96400Y-205038D01*
X96519Y-205376D01*
X96665Y-205695D01*
X96838Y-205994D01*
X97037Y-206274D01*
X97260Y-206531D01*
X97503Y-206758D01*
X97768Y-206958D01*
X98053Y-207129D01*
X98359Y-207272D01*
X98686Y-207387D01*
X99033Y-207473D01*
X99402Y-207531D01*
X99524Y-205946D01*
X99288Y-205911D01*
X99066Y-205860D01*
X98857Y-205791D01*
X98662Y-205706D01*
X98480Y-205604D01*
X98312Y-205485D01*
X98158Y-205350D01*
X98018Y-205197D01*
X97893Y-205030D01*
X97784Y-204850D01*
X97692Y-204658D01*
X97617Y-204454D01*
X97559Y-204237D01*
X97517Y-204007D01*
X97492Y-203765D01*
X97484Y-203511D01*
X97493Y-203233D01*
X97519Y-202973D01*
X97564Y-202730D01*
X97627Y-202505D01*
X97708Y-202297D01*
X97806Y-202108D01*
X97923Y-201936D01*
X98057Y-201781D01*
X98207Y-201645D01*
X98370Y-201526D01*
X98546Y-201426D01*
X98735Y-201344D01*
X98937Y-201281D01*
X99152Y-201235D01*
X99380Y-201208D01*
X99621Y-201199D01*
X99864Y-201210D01*
X100093Y-201243D01*
X100309Y-201299D01*
X100511Y-201377D01*
X100699Y-201478D01*
X100875Y-201600D01*
X101036Y-201745D01*
X101184Y-201913D01*
X101316Y-202100D01*
X101431Y-202306D01*
X101528Y-202530D01*
X101608Y-202772D01*
X101670Y-203032D01*
X101714Y-203311D01*
X101740Y-203608D01*
X101749Y-203923D01*
X101749Y-204781D01*
X103115Y-204781D01*
X103115Y-203888D01*
X103124Y-203533D01*
X103151Y-203199D01*
X103195Y-202887D01*
X103257Y-202597D01*
X103336Y-202328D01*
X103433Y-202080D01*
X103548Y-201854D01*
X103680Y-201650D01*
X103828Y-201468D01*
X103990Y-201311D01*
X104166Y-201177D01*
X104356Y-201068D01*
X104559Y-200984D01*
X104776Y-200923D01*
X105008Y-200887D01*
X105252Y-200875D01*
X105533Y-200885D01*
X105795Y-200917D01*
X106039Y-200970D01*
X106266Y-201044D01*
X106475Y-201140D01*
X106666Y-201256D01*
X106840Y-201394D01*
X106995Y-201553D01*
X107133Y-201731D01*
X107252Y-201925D01*
X107353Y-202135D01*
X107435Y-202360D01*
X107500Y-202602D01*
X107546Y-202860D01*
X107573Y-203134D01*
X107582Y-203423D01*
X107574Y-203712D01*
X107548Y-203985D01*
X107505Y-204241D01*
X107445Y-204482D01*
X107368Y-204706D01*
X107274Y-204914D01*
X107163Y-205106D01*
X107035Y-205282D01*
X106889Y-205442D01*
X106727Y-205586D01*
X106547Y-205714D01*
X106351Y-205826D01*
X106137Y-205922D01*
X105906Y-206001D01*
X105658Y-206065D01*
X105393Y-206112D01*
X105541Y-207741D01*
X105943Y-207675D01*
G37*
G36*
X106039Y-228998D02*
X106406Y-228895D01*
X106748Y-228772D01*
X107064Y-228629D01*
X107355Y-228466D01*
X107621Y-228283D01*
X107862Y-228080D01*
X108077Y-227858D01*
X108267Y-227615D01*
X108431Y-227353D01*
X108571Y-227070D01*
X108685Y-226768D01*
X108773Y-226446D01*
X108837Y-226103D01*
X108875Y-225741D01*
X108887Y-225359D01*
X108871Y-224948D01*
X108823Y-224559D01*
X108742Y-224193D01*
X108630Y-223849D01*
X108485Y-223527D01*
X108308Y-223228D01*
X108099Y-222951D01*
X107858Y-222697D01*
X107589Y-222469D01*
X107296Y-222271D01*
X106978Y-222104D01*
X106637Y-221968D01*
X106272Y-221861D01*
X105883Y-221785D01*
X105470Y-221740D01*
X105033Y-221725D01*
X96371Y-221725D01*
X96371Y-225762D01*
X97738Y-225762D01*
X97738Y-223389D01*
X105068Y-223389D01*
X105362Y-223397D01*
X105636Y-223422D01*
X105893Y-223463D01*
X106132Y-223520D01*
X106352Y-223594D01*
X106554Y-223684D01*
X106738Y-223791D01*
X106903Y-223914D01*
X107050Y-224052D01*
X107177Y-224201D01*
X107285Y-224363D01*
X107373Y-224536D01*
X107442Y-224722D01*
X107490Y-224919D01*
X107520Y-225129D01*
X107530Y-225351D01*
X107521Y-225554D01*
X107494Y-225749D01*
X107450Y-225935D01*
X107387Y-226113D01*
X107307Y-226281D01*
X107209Y-226441D01*
X107094Y-226592D01*
X106960Y-226734D01*
X106811Y-226866D01*
X106648Y-226986D01*
X106471Y-227093D01*
X106279Y-227188D01*
X106074Y-227270D01*
X105855Y-227340D01*
X105622Y-227398D01*
X105375Y-227444D01*
X105647Y-229082D01*
X106039Y-228998D01*
G37*
G36*
X362712Y-217249D02*
X357904Y-217249D01*
X357904Y-213623D01*
X357887Y-213145D01*
X357839Y-212693D01*
X357758Y-212267D01*
X357645Y-211866D01*
X357500Y-211490D01*
X357322Y-211141D01*
X357112Y-210817D01*
X356870Y-210518D01*
X356600Y-210250D01*
X356308Y-210018D01*
X355994Y-209822D01*
X355657Y-209661D01*
X355298Y-209536D01*
X354916Y-209446D01*
X354512Y-209393D01*
X354085Y-209375D01*
X353655Y-209393D01*
X353250Y-209446D01*
X352870Y-209535D01*
X352515Y-209660D01*
X352185Y-209820D01*
X351879Y-210016D01*
X351599Y-210247D01*
X351343Y-210514D01*
X351116Y-210813D01*
X350918Y-211142D01*
X350751Y-211499D01*
X350614Y-211887D01*
X350508Y-212303D01*
X350432Y-212749D01*
X350386Y-213224D01*
X350371Y-213728D01*
X350371Y-218922D01*
X362712Y-218922D01*
X362712Y-217249D01*
G37*
%LPC*%
G36*
X351711Y-217249D02*
X351711Y-213929D01*
X351721Y-213582D01*
X351749Y-213256D01*
X351795Y-212953D01*
X351861Y-212673D01*
X351945Y-212415D01*
X352048Y-212179D01*
X352169Y-211966D01*
X352309Y-211775D01*
X352468Y-211607D01*
X352645Y-211461D01*
X352841Y-211337D01*
X353056Y-211236D01*
X353290Y-211158D01*
X353542Y-211102D01*
X353813Y-211068D01*
X354102Y-211057D01*
X354403Y-211068D01*
X354683Y-211100D01*
X354945Y-211155D01*
X355187Y-211232D01*
X355409Y-211330D01*
X355613Y-211451D01*
X355797Y-211593D01*
X355961Y-211757D01*
X356107Y-211943D01*
X356232Y-212151D01*
X356339Y-212381D01*
X356426Y-212633D01*
X356494Y-212907D01*
X356542Y-213203D01*
X356571Y-213520D01*
X356581Y-213859D01*
X356581Y-217249D01*
X351711Y-217249D01*
G37*
%LPD*%
G36*
X359918Y-202197D02*
X362712Y-202197D01*
X362712Y-200708D01*
X359918Y-200708D01*
X359918Y-198974D01*
X358674Y-198974D01*
X358674Y-200708D01*
X350371Y-200708D01*
X350371Y-202364D01*
X358692Y-208013D01*
X359918Y-208013D01*
X359918Y-202197D01*
G37*
%LPC*%
G36*
X358499Y-206419D02*
X357851Y-205946D01*
X353191Y-202784D01*
X352613Y-202442D01*
X352149Y-202197D01*
X358674Y-202197D01*
X358674Y-206559D01*
X358499Y-206419D01*
G37*
%LPD*%
G36*
X360039Y-228998D02*
X360406Y-228895D01*
X360748Y-228772D01*
X361064Y-228629D01*
X361355Y-228466D01*
X361621Y-228283D01*
X361862Y-228080D01*
X362077Y-227858D01*
X362267Y-227615D01*
X362431Y-227353D01*
X362571Y-227070D01*
X362685Y-226768D01*
X362773Y-226446D01*
X362837Y-226103D01*
X362875Y-225741D01*
X362887Y-225359D01*
X362871Y-224948D01*
X362823Y-224559D01*
X362742Y-224193D01*
X362630Y-223849D01*
X362485Y-223527D01*
X362308Y-223228D01*
X362099Y-222951D01*
X361858Y-222697D01*
X361589Y-222469D01*
X361296Y-222271D01*
X360978Y-222104D01*
X360637Y-221968D01*
X360272Y-221861D01*
X359883Y-221785D01*
X359470Y-221740D01*
X359033Y-221725D01*
X350371Y-221725D01*
X350371Y-225762D01*
X351738Y-225762D01*
X351738Y-223389D01*
X359068Y-223389D01*
X359362Y-223397D01*
X359636Y-223422D01*
X359893Y-223463D01*
X360132Y-223520D01*
X360352Y-223594D01*
X360554Y-223684D01*
X360738Y-223791D01*
X360903Y-223914D01*
X361050Y-224052D01*
X361177Y-224201D01*
X361285Y-224363D01*
X361373Y-224536D01*
X361442Y-224722D01*
X361490Y-224919D01*
X361520Y-225129D01*
X361530Y-225351D01*
X361521Y-225554D01*
X361494Y-225749D01*
X361450Y-225935D01*
X361387Y-226113D01*
X361307Y-226281D01*
X361209Y-226441D01*
X361094Y-226592D01*
X360960Y-226734D01*
X360811Y-226866D01*
X360648Y-226986D01*
X360471Y-227093D01*
X360279Y-227188D01*
X360074Y-227270D01*
X359855Y-227340D01*
X359622Y-227398D01*
X359375Y-227444D01*
X359647Y-229082D01*
X360039Y-228998D01*
G37*
D10*
X114300Y-429800D02*
X114300Y-417100D01*
X120650Y-410750D01*
X133350Y-410750D01*
X139700Y-417100D01*
X120650Y-410750D02*
X114300Y-404400D01*
X114300Y-391700D01*
X120650Y-385350D01*
X133350Y-385350D01*
X139700Y-391700D01*
X139700Y-404400D01*
X133350Y-410750D01*
X114300Y-455200D02*
X120650Y-461550D01*
X114300Y-455200D02*
X114300Y-442500D01*
X120650Y-436150D01*
X133350Y-436150D01*
X139700Y-442500D01*
X139700Y-455200D01*
X133350Y-461550D01*
X120650Y-436150D02*
X114300Y-429800D01*
X133350Y-436150D02*
X139700Y-429800D01*
X139700Y-417100D01*
X114300Y-493300D02*
X114300Y-506000D01*
X114300Y-493300D02*
X120650Y-486950D01*
X133350Y-486950D01*
X139700Y-493300D01*
X120650Y-486950D02*
X114300Y-480600D01*
X114300Y-467900D01*
X120650Y-461550D01*
X133350Y-461550D01*
X139700Y-467900D01*
X139700Y-480600D01*
X133350Y-486950D01*
X114300Y-531400D02*
X120650Y-537750D01*
X114300Y-531400D02*
X114300Y-518700D01*
X120650Y-512350D01*
X133350Y-512350D01*
X139700Y-518700D01*
X139700Y-531400D01*
X133350Y-537750D01*
X120650Y-512350D02*
X114300Y-506000D01*
X133350Y-512350D02*
X139700Y-506000D01*
X139700Y-493300D01*
X114300Y-569500D02*
X114300Y-582200D01*
X114300Y-569500D02*
X120650Y-563150D01*
X133350Y-563150D01*
X139700Y-569500D01*
X120650Y-563150D02*
X114300Y-556800D01*
X114300Y-544100D01*
X120650Y-537750D01*
X133350Y-537750D01*
X139700Y-544100D01*
X139700Y-556800D01*
X133350Y-563150D01*
X114300Y-607600D02*
X120650Y-613950D01*
X114300Y-607600D02*
X114300Y-594900D01*
X120650Y-588550D01*
X133350Y-588550D01*
X139700Y-594900D01*
X139700Y-607600D01*
X133350Y-613950D01*
X120650Y-588550D02*
X114300Y-582200D01*
X133350Y-588550D02*
X139700Y-582200D01*
X139700Y-569500D01*
X114300Y-645700D02*
X114300Y-658400D01*
X114300Y-645700D02*
X120650Y-639350D01*
X133350Y-639350D01*
X139700Y-645700D01*
X120650Y-639350D02*
X114300Y-633000D01*
X114300Y-620300D01*
X120650Y-613950D01*
X133350Y-613950D01*
X139700Y-620300D01*
X139700Y-633000D01*
X133350Y-639350D01*
X114300Y-683800D02*
X120650Y-690150D01*
X114300Y-683800D02*
X114300Y-671100D01*
X120650Y-664750D01*
X133350Y-664750D01*
X139700Y-671100D01*
X139700Y-683800D01*
X133350Y-690150D01*
X120650Y-664750D02*
X114300Y-658400D01*
X133350Y-664750D02*
X139700Y-658400D01*
X139700Y-645700D01*
X114300Y-721900D02*
X114300Y-734600D01*
X114300Y-721900D02*
X120650Y-715550D01*
X133350Y-715550D01*
X139700Y-721900D01*
X120650Y-715550D02*
X114300Y-709200D01*
X114300Y-696500D01*
X120650Y-690150D01*
X133350Y-690150D01*
X139700Y-696500D01*
X139700Y-709200D01*
X133350Y-715550D01*
X133350Y-740950D02*
X120650Y-740950D01*
X114300Y-734600D01*
X133350Y-740950D02*
X139700Y-734600D01*
X139700Y-721900D01*
X120650Y-385350D02*
X114300Y-379000D01*
X114300Y-366300D01*
X120650Y-359950D01*
X133350Y-359950D01*
X139700Y-366300D01*
X139700Y-379000D01*
X133350Y-385350D01*
X368300Y-417100D02*
X368300Y-429800D01*
X368300Y-417100D02*
X374650Y-410750D01*
X387350Y-410750D01*
X393700Y-417100D01*
X374650Y-410750D02*
X368300Y-404400D01*
X368300Y-391700D01*
X374650Y-385350D01*
X387350Y-385350D01*
X393700Y-391700D01*
X393700Y-404400D01*
X387350Y-410750D01*
X368300Y-455200D02*
X374650Y-461550D01*
X368300Y-455200D02*
X368300Y-442500D01*
X374650Y-436150D01*
X387350Y-436150D01*
X393700Y-442500D01*
X393700Y-455200D01*
X387350Y-461550D01*
X374650Y-436150D02*
X368300Y-429800D01*
X387350Y-436150D02*
X393700Y-429800D01*
X393700Y-417100D01*
X368300Y-493300D02*
X368300Y-506000D01*
X368300Y-493300D02*
X374650Y-486950D01*
X387350Y-486950D01*
X393700Y-493300D01*
X374650Y-486950D02*
X368300Y-480600D01*
X368300Y-467900D01*
X374650Y-461550D01*
X387350Y-461550D01*
X393700Y-467900D01*
X393700Y-480600D01*
X387350Y-486950D01*
X368300Y-531400D02*
X374650Y-537750D01*
X368300Y-531400D02*
X368300Y-518700D01*
X374650Y-512350D01*
X387350Y-512350D01*
X393700Y-518700D01*
X393700Y-531400D01*
X387350Y-537750D01*
X374650Y-512350D02*
X368300Y-506000D01*
X387350Y-512350D02*
X393700Y-506000D01*
X393700Y-493300D01*
X368300Y-569500D02*
X368300Y-582200D01*
X368300Y-569500D02*
X374650Y-563150D01*
X387350Y-563150D01*
X393700Y-569500D01*
X374650Y-563150D02*
X368300Y-556800D01*
X368300Y-544100D01*
X374650Y-537750D01*
X387350Y-537750D01*
X393700Y-544100D01*
X393700Y-556800D01*
X387350Y-563150D01*
X368300Y-607600D02*
X374650Y-613950D01*
X368300Y-607600D02*
X368300Y-594900D01*
X374650Y-588550D01*
X387350Y-588550D01*
X393700Y-594900D01*
X393700Y-607600D01*
X387350Y-613950D01*
X374650Y-588550D02*
X368300Y-582200D01*
X387350Y-588550D02*
X393700Y-582200D01*
X393700Y-569500D01*
X368300Y-645700D02*
X368300Y-658400D01*
X368300Y-645700D02*
X374650Y-639350D01*
X387350Y-639350D01*
X393700Y-645700D01*
X374650Y-639350D02*
X368300Y-633000D01*
X368300Y-620300D01*
X374650Y-613950D01*
X387350Y-613950D01*
X393700Y-620300D01*
X393700Y-633000D01*
X387350Y-639350D01*
X368300Y-683800D02*
X374650Y-690150D01*
X368300Y-683800D02*
X368300Y-671100D01*
X374650Y-664750D01*
X387350Y-664750D01*
X393700Y-671100D01*
X393700Y-683800D01*
X387350Y-690150D01*
X374650Y-664750D02*
X368300Y-658400D01*
X387350Y-664750D02*
X393700Y-658400D01*
X393700Y-645700D01*
X368300Y-721900D02*
X368300Y-734600D01*
X368300Y-721900D02*
X374650Y-715550D01*
X387350Y-715550D01*
X393700Y-721900D01*
X374650Y-715550D02*
X368300Y-709200D01*
X368300Y-696500D01*
X374650Y-690150D01*
X387350Y-690150D01*
X393700Y-696500D01*
X393700Y-709200D01*
X387350Y-715550D01*
X387350Y-740950D02*
X374650Y-740950D01*
X368300Y-734600D01*
X387350Y-740950D02*
X393700Y-734600D01*
X393700Y-721900D01*
X374650Y-385350D02*
X368300Y-379000D01*
X368300Y-366300D01*
X374650Y-359950D01*
X387350Y-359950D01*
X393700Y-366300D01*
X393700Y-379000D01*
X387350Y-385350D01*
X114300Y-69850D02*
X114300Y-57150D01*
X120650Y-50800D01*
X133350Y-50800D01*
X139700Y-57150D01*
X114300Y-95250D02*
X120650Y-101600D01*
X114300Y-95250D02*
X114300Y-82550D01*
X120650Y-76200D01*
X133350Y-76200D01*
X139700Y-82550D01*
X139700Y-95250D01*
X133350Y-101600D01*
X120650Y-76200D02*
X114300Y-69850D01*
X133350Y-76200D02*
X139700Y-69850D01*
X139700Y-57150D01*
X114300Y-133350D02*
X114300Y-146050D01*
X114300Y-133350D02*
X120650Y-127000D01*
X133350Y-127000D01*
X139700Y-133350D01*
X120650Y-127000D02*
X114300Y-120650D01*
X114300Y-107950D01*
X120650Y-101600D01*
X133350Y-101600D01*
X139700Y-107950D01*
X139700Y-120650D01*
X133350Y-127000D01*
X114300Y-171450D02*
X120650Y-177800D01*
X114300Y-171450D02*
X114300Y-158750D01*
X120650Y-152400D01*
X133350Y-152400D01*
X139700Y-158750D01*
X139700Y-171450D01*
X133350Y-177800D01*
X120650Y-152400D02*
X114300Y-146050D01*
X133350Y-152400D02*
X139700Y-146050D01*
X139700Y-133350D01*
X114300Y-209550D02*
X114300Y-222250D01*
X114300Y-209550D02*
X120650Y-203200D01*
X133350Y-203200D01*
X139700Y-209550D01*
X120650Y-203200D02*
X114300Y-196850D01*
X114300Y-184150D01*
X120650Y-177800D01*
X133350Y-177800D01*
X139700Y-184150D01*
X139700Y-196850D01*
X133350Y-203200D01*
X133350Y-228600D02*
X120650Y-228600D01*
X114300Y-222250D01*
X133350Y-228600D02*
X139700Y-222250D01*
X139700Y-209550D01*
X114300Y-44450D02*
X114300Y-31750D01*
X120650Y-25400D01*
X133350Y-25400D01*
X139700Y-31750D01*
X120650Y-50800D02*
X114300Y-44450D01*
X133350Y-50800D02*
X139700Y-44450D01*
X139700Y-31750D01*
X368300Y-57150D02*
X368300Y-69850D01*
X368300Y-57150D02*
X374650Y-50800D01*
X387350Y-50800D01*
X393700Y-57150D01*
X368300Y-95250D02*
X374650Y-101600D01*
X368300Y-95250D02*
X368300Y-82550D01*
X374650Y-76200D01*
X387350Y-76200D01*
X393700Y-82550D01*
X393700Y-95250D01*
X387350Y-101600D01*
X374650Y-76200D02*
X368300Y-69850D01*
X387350Y-76200D02*
X393700Y-69850D01*
X393700Y-57150D01*
X368300Y-133350D02*
X368300Y-146050D01*
X368300Y-133350D02*
X374650Y-127000D01*
X387350Y-127000D01*
X393700Y-133350D01*
X374650Y-127000D02*
X368300Y-120650D01*
X368300Y-107950D01*
X374650Y-101600D01*
X387350Y-101600D01*
X393700Y-107950D01*
X393700Y-120650D01*
X387350Y-127000D01*
X368300Y-171450D02*
X374650Y-177800D01*
X368300Y-171450D02*
X368300Y-158750D01*
X374650Y-152400D01*
X387350Y-152400D01*
X393700Y-158750D01*
X393700Y-171450D01*
X387350Y-177800D01*
X374650Y-152400D02*
X368300Y-146050D01*
X387350Y-152400D02*
X393700Y-146050D01*
X393700Y-133350D01*
X368300Y-209550D02*
X368300Y-222250D01*
X368300Y-209550D02*
X374650Y-203200D01*
X387350Y-203200D01*
X393700Y-209550D01*
X374650Y-203200D02*
X368300Y-196850D01*
X368300Y-184150D01*
X374650Y-177800D01*
X387350Y-177800D01*
X393700Y-184150D01*
X393700Y-196850D01*
X387350Y-203200D01*
X387350Y-228600D02*
X374650Y-228600D01*
X368300Y-222250D01*
X387350Y-228600D02*
X393700Y-222250D01*
X393700Y-209550D01*
X368300Y-44450D02*
X368300Y-31750D01*
X374650Y-25400D01*
X387350Y-25400D01*
X393700Y-31750D01*
X374650Y-50800D02*
X368300Y-44450D01*
X387350Y-50800D02*
X393700Y-44450D01*
X393700Y-31750D01*
M02*
