G04 EAGLE Gerber RS-274X export*
G75*
%MOMM*%
%FSLAX34Y34*%
%LPD*%
%INSoldermask Bottom*%
%IPPOS*%
%AMOC8*
5,1,8,0,0,1.08239X$1,22.5*%
G01*
G04 Define Apertures*
%ADD10C,3.303200*%
%ADD11C,1.727200*%
D10*
X38100Y-38100D03*
X469900Y-38100D03*
X469900Y-723900D03*
X38100Y-723900D03*
D11*
X119380Y-728250D02*
X134620Y-728250D01*
X134620Y-702850D02*
X119380Y-702850D01*
X119380Y-677450D02*
X134620Y-677450D01*
X134620Y-652050D02*
X119380Y-652050D01*
X119380Y-626650D02*
X134620Y-626650D01*
X134620Y-601250D02*
X119380Y-601250D01*
X119380Y-575850D02*
X134620Y-575850D01*
X134620Y-550450D02*
X119380Y-550450D01*
X119380Y-525050D02*
X134620Y-525050D01*
X134620Y-499650D02*
X119380Y-499650D01*
X119380Y-474250D02*
X134620Y-474250D01*
X134620Y-448850D02*
X119380Y-448850D01*
X119380Y-423450D02*
X134620Y-423450D01*
X134620Y-398050D02*
X119380Y-398050D01*
X119380Y-372650D02*
X134620Y-372650D01*
X373380Y-728250D02*
X388620Y-728250D01*
X388620Y-702850D02*
X373380Y-702850D01*
X373380Y-677450D02*
X388620Y-677450D01*
X388620Y-652050D02*
X373380Y-652050D01*
X373380Y-626650D02*
X388620Y-626650D01*
X388620Y-601250D02*
X373380Y-601250D01*
X373380Y-575850D02*
X388620Y-575850D01*
X388620Y-550450D02*
X373380Y-550450D01*
X373380Y-525050D02*
X388620Y-525050D01*
X388620Y-499650D02*
X373380Y-499650D01*
X373380Y-474250D02*
X388620Y-474250D01*
X388620Y-448850D02*
X373380Y-448850D01*
X373380Y-423450D02*
X388620Y-423450D01*
X388620Y-398050D02*
X373380Y-398050D01*
X373380Y-372650D02*
X388620Y-372650D01*
X134620Y-215900D02*
X119380Y-215900D01*
X119380Y-190500D02*
X134620Y-190500D01*
X134620Y-165100D02*
X119380Y-165100D01*
X119380Y-139700D02*
X134620Y-139700D01*
X134620Y-114300D02*
X119380Y-114300D01*
X119380Y-88900D02*
X134620Y-88900D01*
X134620Y-63500D02*
X119380Y-63500D01*
X119380Y-38100D02*
X134620Y-38100D01*
X373380Y-215900D02*
X388620Y-215900D01*
X388620Y-190500D02*
X373380Y-190500D01*
X373380Y-165100D02*
X388620Y-165100D01*
X388620Y-139700D02*
X373380Y-139700D01*
X373380Y-114300D02*
X388620Y-114300D01*
X388620Y-88900D02*
X373380Y-88900D01*
X373380Y-63500D02*
X388620Y-63500D01*
X388620Y-38100D02*
X373380Y-38100D01*
M02*
