M48
;GenerationSoftware,Autodesk,EAGLE,9.7.0*%
;CreationDate,2022-06-02T03:03:08Z*%
FMAT,2
ICI,OFF
METRIC,TZ,000.000
T3C1.016
T2C3.100
%
G90
M71
T2
X3810Y-3810
X46990Y-3810
X46990Y-72390
X3810Y-72390
T3
X12700Y-72825
X12700Y-70285
X12700Y-67745
X12700Y-65205
X12700Y-62665
X12700Y-60125
X12700Y-57585
X12700Y-55045
X12700Y-52505
X12700Y-49965
X12700Y-47425
X12700Y-44885
X12700Y-42345
X12700Y-39805
X12700Y-37265
X38100Y-72825
X38100Y-70285
X38100Y-67745
X38100Y-65205
X38100Y-62665
X38100Y-60125
X38100Y-57585
X38100Y-55045
X38100Y-52505
X38100Y-49965
X38100Y-47425
X38100Y-44885
X38100Y-42345
X38100Y-39805
X38100Y-37265
X12700Y-21590
X12700Y-19050
X12700Y-16510
X12700Y-13970
X12700Y-11430
X12700Y-8890
X12700Y-6350
X12700Y-3810
X38100Y-21590
X38100Y-19050
X38100Y-16510
X38100Y-13970
X38100Y-11430
X38100Y-8890
X38100Y-6350
X38100Y-3810
M30